<?xml version="1.0" encoding="UTF-8"?>
<svg width="176px" height="41px" viewBox="0 0 176 41" version="1.1" xmlns="http://www.w3.org/2000/svg" xmlns:xlink="http://www.w3.org/1999/xlink">
    <!-- Generator: Sketch 63.1 (92452) - https://sketch.com -->
    <title>Long Logo</title>
    <desc>Created with Sketch.</desc>
    <g id="Long-Logo" stroke="none" stroke-width="1" fill="none" fill-rule="evenodd">
        <text id="Date-My-Mate" font-family="Pacifico-Regular, Pacifico" font-size="22" font-weight="normal" fill="#007A95">
            <tspan x="6.4375" y="30">Date My Mate</tspan>
        </text>
        <g id="heart-icon-transparent-background-1-copy-13" transform="translate(147.000000, 14.000000)" fill="#007996" fill-rule="nonzero" stroke="#007995">
            <g id="Group" transform="translate(11.500000, 6.500000) scale(-1, 1) rotate(-180.000000) translate(-11.500000, -6.500000) ">
                <path d="M19.0414133,12.5442187 C18.9420488,12.5225905 18.6581502,12.4144493 18.409739,12.2990988 C17.8561369,12.0467695 17.0683185,11.260944 16.6992504,10.5976784 C16.5643986,10.3453491 16.4366443,10.1434856 16.4153519,10.1434856 C16.3940595,10.1434856 16.3159874,10.2444174 16.2450127,10.3669773 C16.0391863,10.7202383 15.4075121,11.3258286 14.9532744,11.5997862 C14.4138672,11.931419 13.6757311,12.16212 13.1505188,12.16212 C12.5898192,12.16212 11.8871703,11.931419 11.5535895,11.6358332 L11.269691,11.3907133 L11.0212798,11.5925768 C10.3683132,12.126073 9.21142668,12.1549106 8.2603666,11.6646709 C7.78483657,11.4123416 7.20284458,10.8067512 6.8905562,10.2299985 L6.59956021,9.69650231 L6.49309826,9.89836575 C6.28017436,10.3165114 5.6555976,11.0302429 5.25813965,11.296991 C4.6122705,11.7295555 4.129643,11.8881625 3.42699414,11.8953719 C1.0209541,11.9097907 -0.0578603115,9.88394693 0.850614983,7.04343994 C1.26226785,5.76016521 2.26301017,4.00827892 3.27794741,2.8115171 C4.13674046,1.80219989 5.54913565,0.771254462 6.66343738,0.338689946 C7.21703951,0.129617097 7.83451881,0.122407689 8.23197675,0.324271129 C8.4165108,0.42520285 9.1688419,1.16777194 10.304436,2.37174317 C11.2838859,3.41710742 12.1355815,4.29665527 12.1923612,4.33991172 C12.2704333,4.39037758 12.3839927,4.31828349 12.6678913,4.04432597 C13.3421503,3.37385097 14.4848419,2.63128188 15.3507324,2.28523027 C15.5565588,2.19871736 15.7765802,2.06894801 15.8333599,1.98964452 C15.9895041,1.76615285 16.2734026,1.82382812 16.9618565,2.24197382 C19.5027484,3.76315903 21.610695,5.74574639 22.4269032,7.36786333 C22.9095307,8.31950526 23.0656749,9.39370714 22.8385561,10.1795327 C22.5262677,11.296991 21.7384493,12.1404918 20.7235121,12.4649152 C20.3260541,12.5874752 19.4956509,12.6235222 19.0414133,12.5442187 Z M20.6190952,11.2606596 C21.0242127,11.0832847 21.4712388,10.6079199 21.6388736,10.1680302 C21.8903258,9.47981551 21.7506301,8.47232603 21.2616953,7.48612154 C20.5422626,6.03874228 18.3141168,3.95990836 16.1418491,2.70409401 L15.8624578,2.54090909 L14.8496642,3.25040872 C13.5016011,4.20823323 13.1034684,4.55588805 12.537701,5.21572271 C11.4969683,6.43606208 10.9172312,8.3304261 11.2315465,9.47981551 C11.4131509,10.1325552 11.9859031,10.6646799 12.7542293,10.8917198 C14.0883229,11.2890396 15.2338273,10.6008249 15.8345187,9.03992573 C16.1837578,8.1388612 16.1697883,8.16014619 16.4910883,8.18143118 L16.7774644,8.20271617 L16.8333427,8.69227091 C16.9241449,9.57205046 17.3851406,10.3383101 18.0836189,10.8136748 C18.4328581,11.0478097 19.0894277,11.3174196 19.466606,11.3883695 C19.7390125,11.4380345 20.3606583,11.3670845 20.6190952,11.2606596 Z M10.1865801,11.2949721 C10.6721239,11.1488743 10.9257661,10.9516422 10.8025685,10.8055444 C10.7590869,10.7471053 10.6286423,10.4695195 10.5271854,10.1919336 C10.3532593,9.75364022 10.3315185,9.57832286 10.3242716,8.81130936 C10.3097778,7.42338019 10.6141485,6.62714714 11.7156807,5.12233971 C11.7953968,5.00546147 11.6794461,4.86666855 10.6286423,3.82206922 C9.2517271,2.45605472 8.61399794,1.93010261 7.96177493,1.60138254 C7.02692196,1.14117445 6.21526666,1.32379671 5.0557591,2.25882268 C3.57014003,3.44221492 1.71492793,6.26920751 1.2511249,8.04429587 C1.17865568,8.30727193 1.1206803,8.76748002 1.1206803,9.06698053 C1.10618646,10.3891657 2.03379251,11.2584476 3.36722621,11.170789 C4.62819069,11.0904352 5.65725365,10.1334945 6.11380975,8.6286871 C6.33846434,7.87628339 6.41818049,7.75210026 6.650082,7.75210026 C6.94720582,7.75210026 7.09214426,7.92741763 7.09214426,8.28535726 C7.09939118,9.22768812 7.70813265,10.4037755 8.46905949,10.9297276 C8.78067715,11.1488743 9.41840631,11.3972406 9.67204859,11.4045455 C9.75176474,11.4045455 9.98366625,11.3534112 10.1865801,11.2949721 Z" id="Shape"></path>
            </g>
        </g>
    </g>
</svg>